<svg xmlns="http://www.w3.org/2000/svg" width="41.602" height="41.602" viewBox="0 0 41.602 41.602">
  <g id="Group_5812" data-name="Group 5812" transform="translate(-106 -50.73)">
    <path id="Path_2807" data-name="Path 2807" d="M126.8,50.73a20.8,20.8,0,1,0,20.8,20.8,20.825,20.825,0,0,0-20.8-20.8Zm0,40a19.2,19.2,0,1,1,19.2-19.2,19.221,19.221,0,0,1-19.2,19.2Zm0,0" fill="#1c2323"/>
    <path id="Path_2808" data-name="Path 2808" d="M136.6,63l-12.3,13.832L116.9,70.906a.8.8,0,1,0-1,1.25l8,6.4a.809.809,0,0,0,.5.176.8.8,0,0,0,.6-.27l12.8-14.4A.8.8,0,1,0,136.6,63Zm0,0" fill="#1c2323"/>
  </g>
</svg>
