<svg id="Group_5778" data-name="Group 5778" xmlns="http://www.w3.org/2000/svg" width="337.533" height="30.224" viewBox="0 0 337.533 30.224">
  <path id="Path_80" data-name="Path 80" d="M321.738,498.906v1.951h3.733v27.2h19.615v-1.928h-17.21V514.1h12.1v-1.928h-12.1V500.857h15.242v5.135h1.927v-7.086Zm25.592,0v1.951h3.709v27.2h5.872v-1.928h-3.653V498.906Zm10.082,19.032h0a10.461,10.461,0,0,0,2.956,7.669h0a10.127,10.127,0,0,0,7.523,3.061h0a8.015,8.015,0,0,0,1.838-.243q1.028-.234,1.935-.51t1.506-.526h0l.632-.227-.51-1.636-.559.226h0q-.567.21-1.336.446t-1.644.445a6.491,6.491,0,0,1-1.53.219h0a8.14,8.14,0,0,1-6.179-2.535h0a9.09,9.09,0,0,1-2.454-5.928h18.335q-.251-5.321-3-8.236h0a9.426,9.426,0,0,0-7.184-2.956h0a9.823,9.823,0,0,0-7.418,3.037A10.677,10.677,0,0,0,357.412,517.937Zm18.149-1.466h-15.89a9.023,9.023,0,0,1,2.162-4.843h0a7.4,7.4,0,0,1,5.742-2.535h0a7.54,7.54,0,0,1,5.45,2.057h0a8.847,8.847,0,0,1,2.535,5.321Zm1.968-8.722v1.928h3.693v18.384h5.572v-1.928h-3.353v-13.4a15.322,15.322,0,0,1,3.6-2.494h0a8.081,8.081,0,0,1,3.734-1.029h0a3.225,3.225,0,0,1,2.576.948h0a3.735,3.735,0,0,1,.858,2.616h0v15.282h2.243V512.908a15.24,15.24,0,0,1,3.6-2.705h0a8.411,8.411,0,0,1,3.774-.988h0a3.326,3.326,0,0,1,2.535.948h0a3.735,3.735,0,0,1,.858,2.616h0v15.282h5.41v-1.928h-3.183V512.527a5.353,5.353,0,0,0-1.49-3.92h0a5.583,5.583,0,0,0-3.985-1.4h-.064a9.276,9.276,0,0,0-4.211,1.15h0a11.96,11.96,0,0,0-3.523,2.494h0a4.836,4.836,0,0,0-1.928-2.745,5.829,5.829,0,0,0-3.288-.9h0a9.653,9.653,0,0,0-4,.9h0a13.973,13.973,0,0,0-3.523,2.389h0v-2.745Zm35.82,10.188h0a10.461,10.461,0,0,0,2.956,7.669h0a10.127,10.127,0,0,0,7.523,3.061h0a8.112,8.112,0,0,0,1.846-.243q1.021-.234,1.928-.51t1.506-.526h0l.632-.227-.5-1.636-.567.226h0q-.566.21-1.336.446t-1.644.445a6.491,6.491,0,0,1-1.53.219h0a8.141,8.141,0,0,1-6.18-2.535h0a9.146,9.146,0,0,1-2.454-5.928h18.335q-.251-5.321-3-8.236h0a9.426,9.426,0,0,0-7.183-2.956h0a9.823,9.823,0,0,0-7.418,3.037A10.677,10.677,0,0,0,413.349,517.937Zm18.149-1.466h-15.89a9.022,9.022,0,0,1,2.162-4.843h0a7.4,7.4,0,0,1,5.742-2.535h0a7.542,7.542,0,0,1,5.45,2.057h0a8.85,8.85,0,0,1,2.535,5.321Zm1.968-8.722v1.928h3.709v18.384h5.539v-1.928H439.4v-13.4a15.322,15.322,0,0,1,3.6-2.494h0a8.63,8.63,0,0,1,3.855-1.029h0a3.38,3.38,0,0,1,2.575.948h0a3.522,3.522,0,0,1,.907,2.616h0v15.282h5.442v-1.928h-3.207V512.527a5.321,5.321,0,0,0-1.506-3.92h0a5.369,5.369,0,0,0-3.831-1.4h-.065a9.792,9.792,0,0,0-4.082.9,15.59,15.59,0,0,0-3.693,2.389h0v-2.745Zm22.571,0v1.928h3.612v15.031a4.073,4.073,0,0,0,.9,2.883,3.6,3.6,0,0,0,2.745.956h0l2.826-.486v-1.928l-2.389.372a1.813,1.813,0,0,1-1.425-.5h0a2.637,2.637,0,0,1-.421-1.717h0V509.677h4.236v-1.928h-4.236v-4.584l-2.235.04v4.544Zm11.694,14.61h0a5.748,5.748,0,0,0,1.806,4.236h0a6.127,6.127,0,0,0,4.527,1.757h0a9.815,9.815,0,0,0,3.734-.858h0a13.132,13.132,0,0,0,3.6-2.308h0v2.875h5.612v-1.928H483.62V512.948a5,5,0,0,0-1.928-4.324,9.4,9.4,0,0,0-5.62-1.418h0a8.818,8.818,0,0,0-1.733.186,15.554,15.554,0,0,0-1.7.453q-.778.259-1.256.454h0l-.5.186.567,1.344.478-.17h0q.462-.145,1.142-.34t1.482-.365a6.642,6.642,0,0,1,1.442-.178h0a6.941,6.941,0,0,1,3.944,1h0a3.481,3.481,0,0,1,1.466,3.166h0v4.8a12.55,12.55,0,0,0-3.231-1.28h0a12.742,12.742,0,0,0-2.826-.381h0a8.163,8.163,0,0,0-5.532,1.806h0A5.685,5.685,0,0,0,467.731,522.359Zm2.292.17h0a4.428,4.428,0,0,1,1.5-3.394,5.949,5.949,0,0,1,4.2-1.385h0a9.244,9.244,0,0,1,3.021.518h0a13.554,13.554,0,0,1,2.664,1.28h0v3.758a10.049,10.049,0,0,1-3.191,2.389h0a7.959,7.959,0,0,1-3.644.939h0a4.562,4.562,0,0,1-3.352-1.239h0A3.906,3.906,0,0,1,470.023,522.529Zm17.744-23.624v1.951h3.718v27.2h5.863v-1.928H493.7V498.906Zm21.38,27.227v1.928h6.268V516.05h6.641a9.623,9.623,0,0,0,6.754-2.324,8.04,8.04,0,0,0,2.535-6.228h0a8,8,0,0,0-2.583-6.349h0a10.646,10.646,0,0,0-7.119-2.243h-12.5v1.951H513v25.276ZM521.2,514.1h-5.783V500.857H521.2q3.985,0,5.888,1.612h0q1.846,1.6,1.846,5.28h0a5.788,5.788,0,0,1-2.008,4.778h0a8.777,8.777,0,0,1-5.62,1.571H521.2Zm10.334-15.193v1.951h3.709v27.2h5.871v-1.928H537.46V498.906Zm11.152,23.453h0a5.761,5.761,0,0,0,1.8,4.236h0a6.146,6.146,0,0,0,4.528,1.757h0a9.812,9.812,0,0,0,3.733-.858h0a13.135,13.135,0,0,0,3.6-2.308h0v2.875h5.621v-1.928h-3.4V512.948a5,5,0,0,0-1.928-4.324,9.387,9.387,0,0,0-5.612-1.418h0a8.851,8.851,0,0,0-1.741.186,15.485,15.485,0,0,0-1.7.453q-.77.259-1.255.454h0l-.5.186.567,1.344.478-.17h0q.462-.145,1.142-.34t1.482-.365a6.642,6.642,0,0,1,1.441-.178h0a6.943,6.943,0,0,1,3.944,1h0a3.481,3.481,0,0,1,1.466,3.166h0v4.8a12.577,12.577,0,0,0-3.223-1.28h0a12.765,12.765,0,0,0-2.835-.381h0a8.181,8.181,0,0,0-5.531,1.806h0A5.662,5.662,0,0,0,542.683,522.359Zm2.284.17h0a4.429,4.429,0,0,1,1.5-3.394,5.96,5.96,0,0,1,4.2-1.385h0a9.222,9.222,0,0,1,3.013.518h0a13.57,13.57,0,0,1,2.664,1.28h0v3.758a10.076,10.076,0,0,1-3.183,2.389h0a8.009,8.009,0,0,1-3.653.939h0a4.581,4.581,0,0,1-3.353-1.239h0A3.908,3.908,0,0,1,544.967,522.529Zm17.542-14.78v1.928h3.6v15.031a4.073,4.073,0,0,0,.9,2.883,3.616,3.616,0,0,0,2.745.956h0l2.834-.486v-1.928l-2.389.372a1.8,1.8,0,0,1-1.426-.5h0a2.641,2.641,0,0,1-.421-1.717h0V509.677h4.235v-1.928h-4.235v-4.584l-2.243.04v4.544Zm13.079,0v1.928h3.142v16.456h.04v1.928h6.187v-1.928h-4.009V509.677h4.009v-1.928h-4.009v-4.065a3.73,3.73,0,0,1,.737-2.495h0a2.478,2.478,0,0,1,2.009-.818h0a2.618,2.618,0,0,1,1.806.656h0a3.4,3.4,0,0,1,.98,1.8h0l1.992-.316a5.015,5.015,0,0,0-1.506-2.826h0a4.191,4.191,0,0,0-3.232-1.239h0A4.726,4.726,0,0,0,580.091,500h0a5.929,5.929,0,0,0-1.36,4.106h0v3.644Zm10.083,10.188h0a10.789,10.789,0,0,0,2.907,7.629h0a9.528,9.528,0,0,0,7.208,3.1h0a9.633,9.633,0,0,0,7.256-3.1h0a10.823,10.823,0,0,0,2.891-7.629h0A10.826,10.826,0,0,0,603,510.284h0a9.542,9.542,0,0,0-7.216-3.077h0a9.5,9.5,0,0,0-7.248,3.077h0A10.727,10.727,0,0,0,585.671,517.937Zm2.284,0h0a9.082,9.082,0,0,1,2.219-6.268h0a7.16,7.16,0,0,1,5.612-2.454h0a7.314,7.314,0,0,1,5.685,2.494h0a9.032,9.032,0,0,1,2.179,6.228h0a9.081,9.081,0,0,1-2.219,6.268h0a7.126,7.126,0,0,1-5.58,2.43h-.065a7.264,7.264,0,0,1-5.653-2.47h0A9.034,9.034,0,0,1,587.954,517.937Zm18.562-10.188v1.928h3.863v18.384h6.414v-1.928h-4.171v-9.095q0-3.985,2.106-5.839t6.463-1.854h.818v-2.138l-.818-.04a4.486,4.486,0,0,0-.486-.024h0a7.82,7.82,0,0,0-1,.065h0q-.794.081-1.579.235a9.733,9.733,0,0,0-1.507.4,9.849,9.849,0,0,0-1.3.559h0a4.6,4.6,0,0,0-1.369,1.11,10.12,10.12,0,0,0-.964,1.247q-.324.511-.365.592h0v-3.6Zm17.647,0v1.928h3.693v18.384h5.572v-1.928h-3.353v-13.4a15.539,15.539,0,0,1,3.6-2.494h0a8.115,8.115,0,0,1,3.734-1.029h0a3.226,3.226,0,0,1,2.576.948h0a3.736,3.736,0,0,1,.858,2.616h0v15.282h2.243V512.908a15.24,15.24,0,0,1,3.6-2.705h0a8.446,8.446,0,0,1,3.774-.988h0a3.325,3.325,0,0,1,2.535.948h0a3.712,3.712,0,0,1,.867,2.616h0v15.282h5.4v-1.928h-3.183V512.527a5.351,5.351,0,0,0-1.49-3.92h0a5.58,5.58,0,0,0-3.984-1.4h-.057a9.292,9.292,0,0,0-4.22,1.15h0a11.836,11.836,0,0,0-3.514,2.494h0a4.889,4.889,0,0,0-1.928-2.745,5.87,5.87,0,0,0-3.3-.9h0a9.651,9.651,0,0,0-4,.9h0a13.965,13.965,0,0,0-3.523,2.389h0v-2.745Z" transform="translate(-321.738 -498.444)" fill="#8d8d8d"/>
</svg>
