<svg id="facebook-logo" xmlns="http://www.w3.org/2000/svg" width="12.681" height="23.456" viewBox="0 0 12.681 23.456">
  <path id="Path_6" data-name="Path 6" d="M34.281,0,31.239,0c-3.417,0-5.626,2.266-5.626,5.772V8.434H22.555a.478.478,0,0,0-.478.479v3.856a.478.478,0,0,0,.478.478h3.058v9.73a.478.478,0,0,0,.478.478h3.99a.478.478,0,0,0,.478-.478v-9.73h3.576a.478.478,0,0,0,.478-.478V8.913a.479.479,0,0,0-.479-.479H30.56V6.178c0-1.084.258-1.635,1.671-1.635H34.28a.478.478,0,0,0,.478-.478V.483A.478.478,0,0,0,34.281,0Z" transform="translate(-22.077)" fill="#8d8d8d"/>
</svg>
