<svg xmlns="http://www.w3.org/2000/svg" width="25.701" height="25.701" viewBox="0 0 25.701 25.701">
  <g id="instagram" transform="translate(0)">
    <ellipse id="Ellipse_1" data-name="Ellipse 1" cx="0.856" cy="0.856" rx="0.856" ry="0.856" transform="translate(18.901 5.087)" fill="#8d8d8d"/>
    <path id="Path_5" data-name="Path 5" d="M134.425,128a6.425,6.425,0,1,0,6.425,6.425A6.425,6.425,0,0,0,134.425,128Zm0,10.441a4.016,4.016,0,1,1,4.016-4.016A4.021,4.021,0,0,1,134.425,138.441Z" transform="translate(-121.575 -121.575)" fill="#8d8d8d"/>
    <path id="Path_4" data-name="Path 4" d="M17.669,0H8.031A8.032,8.032,0,0,0,0,8.031v9.638A8.032,8.032,0,0,0,8.031,25.7h9.638A8.032,8.032,0,0,0,25.7,17.669V8.031A8.032,8.032,0,0,0,17.669,0Zm5.622,17.669a5.628,5.628,0,0,1-5.622,5.622H8.031a5.628,5.628,0,0,1-5.622-5.622V8.031A5.628,5.628,0,0,1,8.031,2.409h9.638a5.628,5.628,0,0,1,5.622,5.622Z" transform="translate(0 0)" fill="#8d8d8d"/>
  </g>
</svg>
