<svg xmlns="http://www.w3.org/2000/svg" width="1187.312" height="180.274" viewBox="0 0 1187.312 180.274">
  <g id="Group_5785" data-name="Group 5785" transform="translate(-366 -379)">
    <g id="Group_10" data-name="Group 10" transform="translate(610.284 427.256)">
      <path id="Path_80" data-name="Path 80" d="M321.738,499.734v5.452h10.43v76h54.8V575.8H338.888V542.181h33.8V536.8h-33.8V505.186h42.584v14.346h5.384v-19.8Zm71.5,0v5.452H403.6v76H420V575.8H409.8v-76.07Zm28.169,53.172h0q0,13.055,8.259,21.428h0q8.258,8.485,21.02,8.552h0a22.4,22.4,0,0,0,5.136-.679q2.873-.655,5.407-1.425,2.512-.77,4.208-1.47h0l1.765-.634-1.425-4.57-1.561.633h0q-1.585.588-3.734,1.245-2.127.634-4.593,1.244a18.135,18.135,0,0,1-4.276.611h0q-10.545,0-17.264-7.082h0q-6.224-6.494-6.857-16.562H478.72q-.7-14.867-8.372-23.011h0q-7.782-8.26-20.07-8.259h0q-12.6,0-20.726,8.486Q421.407,539.918,421.407,552.906Zm50.706-4.1H427.72q1.358-8.485,6.041-13.531h0A20.679,20.679,0,0,1,449.8,528.2h0q9.255,0,15.227,5.747h0a24.716,24.716,0,0,1,7.082,14.866Zm5.5-24.369v5.386h10.317v51.362H503.5V575.8h-9.368V538.379a42.811,42.811,0,0,1,10.068-6.968h0a22.577,22.577,0,0,1,10.431-2.874h0q4.909,0,7.2,2.648h0a10.436,10.436,0,0,1,2.4,7.308h0v42.7h6.268V538.855a42.575,42.575,0,0,1,10.068-7.558h0a23.5,23.5,0,0,1,10.545-2.76h0a9.293,9.293,0,0,1,7.082,2.648h0a10.436,10.436,0,0,1,2.4,7.308h0v42.7H575.7V575.8H566.8V537.791a14.956,14.956,0,0,0-4.162-10.951h0q-4.164-3.913-11.133-3.914h-.18a25.917,25.917,0,0,0-11.766,3.214h0a33.418,33.418,0,0,0-9.843,6.968h0a13.512,13.512,0,0,0-5.386-7.67,16.285,16.285,0,0,0-9.186-2.512h0a26.969,26.969,0,0,0-11.178,2.512h0a39.039,39.039,0,0,0-9.842,6.674h0v-7.67Zm100.077,28.465h0q0,13.055,8.259,21.428h0q8.258,8.485,21.02,8.552h0a22.671,22.671,0,0,0,5.158-.679q2.851-.655,5.386-1.425,2.512-.77,4.208-1.47h0l1.765-.634-1.4-4.57-1.584.633h0q-1.582.588-3.733,1.245-2.127.634-4.593,1.244a18.135,18.135,0,0,1-4.276.611h0q-10.545,0-17.265-7.082h0q-6.2-6.494-6.856-16.562H635q-.7-14.867-8.372-23.011h0q-7.782-8.26-20.07-8.259h0q-12.6,0-20.726,8.486Q577.689,539.918,577.689,552.906Zm50.706-4.1H584q1.357-8.485,6.041-13.531h0a20.679,20.679,0,0,1,16.043-7.082h0q9.253,0,15.228,5.747h0A24.726,24.726,0,0,1,628.4,548.81Zm5.5-24.369v5.386h10.362v51.362h15.477V575.8h-9.254V538.379a42.811,42.811,0,0,1,10.068-6.968h0a24.112,24.112,0,0,1,10.771-2.874h0q4.682,0,7.194,2.648h0q2.536,2.51,2.535,7.308h0v42.7h15.2V575.8h-8.96V537.791a14.867,14.867,0,0,0-4.208-10.951h0a15,15,0,0,0-10.7-3.914H672.2a27.357,27.357,0,0,0-11.4,2.512,43.556,43.556,0,0,0-10.317,6.674h0v-7.67Zm63.06,0v5.386h10.091v41.995q0,5.385,2.512,8.055t7.67,2.671h0l7.9-1.358V575.8l-6.674,1.041a5.067,5.067,0,0,1-3.982-1.4h0q-1.178-1.336-1.177-4.8h0V529.827h11.834v-5.386H713.289V511.635l-6.245.112v12.694Zm32.673,40.819h0a16.059,16.059,0,0,0,5.045,11.834h0A17.119,17.119,0,0,0,747.32,582h0a27.42,27.42,0,0,0,10.431-2.4h0a36.69,36.69,0,0,0,10.068-6.449h0v8.033H783.5V575.8h-9.48V538.967q0-8.146-5.386-12.081-5.385-3.96-15.7-3.96h0a24.633,24.633,0,0,0-4.842.52,43.471,43.471,0,0,0-4.752,1.267q-2.172.724-3.508,1.268h0l-1.4.52,1.584,3.756,1.334-.476h0q1.291-.406,3.191-.95,1.9-.521,4.141-1.019a18.558,18.558,0,0,1,4.028-.5h0q6.855,0,11.018,2.806h0q4.1,2.646,4.1,8.846h0v13.419a35.061,35.061,0,0,0-9.027-3.575h0a35.6,35.6,0,0,0-7.9-1.064h0q-9.618,0-15.455,5.046h0A15.884,15.884,0,0,0,729.627,565.26Zm6.4.476h0a12.371,12.371,0,0,1,4.185-9.482q4.187-3.869,11.721-3.868h0a25.829,25.829,0,0,1,8.44,1.447h0a37.878,37.878,0,0,1,7.444,3.575h0v10.5a28.078,28.078,0,0,1-8.915,6.674h0a22.237,22.237,0,0,1-10.182,2.624h0a12.746,12.746,0,0,1-9.366-3.462h0A10.914,10.914,0,0,1,736.03,565.736Zm49.574-66v5.452H795.99v76h16.38V575.8H802.189v-76.07Zm59.734,76.07v5.386h17.513V547.634H881.4q11.766,0,18.871-6.494,7.082-6.494,7.082-17.4h0q0-11.4-7.217-17.738h0q-7.2-6.2-19.89-6.268H845.338v5.452h10.771V575.8Zm33.669-33.623H862.851v-37h16.156q11.133,0,16.45,4.5h0q5.158,4.457,5.158,14.752h0q0,8.8-5.611,13.35h0q-5.454,4.391-15.7,4.39h-.294Zm28.871-42.447v5.452h10.364v76h16.4V575.8h-10.2v-76.07Zm31.157,65.526h0a16.1,16.1,0,0,0,5.022,11.834h0A17.172,17.172,0,0,0,956.706,582h0a27.414,27.414,0,0,0,10.43-2.4h0a36.7,36.7,0,0,0,10.069-6.449h0v8.033h15.7V575.8h-9.5V538.967q0-8.146-5.386-12.081-5.385-3.96-15.68-3.96h0a24.726,24.726,0,0,0-4.864.52,43.28,43.28,0,0,0-4.752,1.267q-2.151.724-3.508,1.268h0l-1.4.52,1.584,3.756,1.335-.476h0q1.291-.406,3.191-.95,1.9-.521,4.141-1.019a18.557,18.557,0,0,1,4.027-.5h0q6.857,0,11.019,2.806h0q4.1,2.646,4.1,8.846h0v13.419a35.136,35.136,0,0,0-9.006-3.575h0a35.665,35.665,0,0,0-7.919-1.064h0q-9.594,0-15.454,5.046h0A15.82,15.82,0,0,0,939.034,565.26Zm6.38.476h0a12.372,12.372,0,0,1,4.187-9.482q4.185-3.869,11.743-3.868h0a25.765,25.765,0,0,1,8.418,1.447h0a37.918,37.918,0,0,1,7.444,3.575h0v10.5a28.154,28.154,0,0,1-8.892,6.674h0a22.376,22.376,0,0,1-10.205,2.624h0a12.8,12.8,0,0,1-9.368-3.462h0A10.92,10.92,0,0,1,945.415,565.736Zm49.01-41.294v5.386h10.068v41.995q0,5.385,2.512,8.055,2.534,2.67,7.67,2.671h0l7.919-1.358V575.8l-6.674,1.041a5.032,5.032,0,0,1-3.983-1.4h0q-1.176-1.336-1.176-4.8h0V529.827h11.833v-5.386H1010.76V511.635l-6.268.112v12.694Zm36.541,0v5.386h8.78V575.8h.113v5.386h17.287V575.8h-11.2V529.827h11.2v-5.386h-11.2V513.083q0-4.572,2.058-6.969h0a6.923,6.923,0,0,1,5.612-2.286h0a7.316,7.316,0,0,1,5.046,1.833h0a9.5,9.5,0,0,1,2.738,5.023h0l5.566-.882a14.011,14.011,0,0,0-4.208-7.9h0q-3.215-3.463-9.029-3.462h0a13.2,13.2,0,0,0-10.182,4.344h0q-3.868,4.436-3.8,11.472h0v10.182Zm28.171,28.465h0a30.143,30.143,0,0,0,8.122,21.314h0a26.622,26.622,0,0,0,20.138,8.666h0a26.912,26.912,0,0,0,20.273-8.666h0a30.239,30.239,0,0,0,8.078-21.314h0a30.247,30.247,0,0,0-8.19-21.383h0a26.659,26.659,0,0,0-20.161-8.6h0a26.535,26.535,0,0,0-20.251,8.6h0Q1059.136,540.032,1059.137,552.906Zm6.38,0h0q0-10.545,6.2-17.513h0a20,20,0,0,1,15.68-6.856h0a20.434,20.434,0,0,1,15.883,6.968h0q6.088,6.857,6.088,17.4h0q0,10.543-6.2,17.512h0a19.91,19.91,0,0,1-15.589,6.788h-.181a20.294,20.294,0,0,1-15.794-6.9h0Q1065.518,563.451,1065.517,552.906Zm51.859-28.465v5.386h10.793v51.362h17.921V575.8h-11.653V550.394q0-11.133,5.883-16.314t18.057-5.181h2.286v-5.974l-2.286-.112a12.535,12.535,0,0,0-1.358-.068h0a21.84,21.84,0,0,0-2.806.18h0q-2.218.227-4.411.656a27.182,27.182,0,0,0-4.21,1.131,27.5,27.5,0,0,0-3.62,1.562h0a12.855,12.855,0,0,0-3.823,3.1,28.282,28.282,0,0,0-2.692,3.483q-.906,1.427-1.019,1.653h0v-10.07Zm49.3,0v5.386H1177v51.362h15.568V575.8H1183.2V538.379a43.419,43.419,0,0,1,10.068-6.968h0a22.673,22.673,0,0,1,10.431-2.874h0q4.909,0,7.2,2.648h0a10.437,10.437,0,0,1,2.4,7.308h0v42.7h6.268V538.855a42.573,42.573,0,0,1,10.068-7.558h0a23.6,23.6,0,0,1,10.544-2.76h0a9.289,9.289,0,0,1,7.082,2.648h0a10.371,10.371,0,0,1,2.421,7.308h0v42.7h15.092V575.8h-8.892V537.791a14.95,14.95,0,0,0-4.163-10.951h0q-4.161-3.913-11.132-3.914h-.158a25.964,25.964,0,0,0-11.789,3.214h0a33.071,33.071,0,0,0-9.819,6.968h0a13.658,13.658,0,0,0-5.386-7.67,16.4,16.4,0,0,0-9.209-2.512h0a26.963,26.963,0,0,0-11.178,2.512h0a39.016,39.016,0,0,0-9.842,6.674h0v-7.67Z" transform="translate(-321.738 -498.444)" fill="#fff"/>
    </g>
    <g id="Group_9" data-name="Group 9" transform="translate(366 379)">
      <path id="Path_1" data-name="Path 1" d="M310.942,608.24H285.083a21.174,21.174,0,0,1-21.247-20.98V561.719a21.178,21.178,0,0,1,21.247-20.985h25.859a21.177,21.177,0,0,1,21.242,20.985V587.26a21.173,21.173,0,0,1-21.242,20.98" transform="translate(-211.757 -449.841)" fill="#dc521e"/>
      <path id="Path_2" data-name="Path 2" d="M301.48,570.7a13.867,13.867,0,0,1,7.256-3.427c3.091-.507,9.994,2.326,9.714,7.815h6s3.066-28.761-7.435-28.812L301.48,570.7" transform="translate(-207.978 -449.284)" fill="#b52922"/>
      <path id="Path_3" data-name="Path 3" d="M272.414,545.066s7.363,20.943,29.293,25.73l1.285-5.4-30.579-20.327" transform="translate(-210.896 -449.406)" fill="#b52922"/>
      <path id="Path_4" data-name="Path 4" d="M272.78,547.973s-.915,5.467,1.655,8.084c2.493,2.545,8.206,11.606,8.206,11.606l-14.95-11.94s2.175-7.4,5.089-7.75" transform="translate(-211.37 -449.114)" fill="#fff"/>
      <path id="Path_5" data-name="Path 5" d="M272.741,559.67V574.4l-5.089-.993V556.82l5.089,2.85" transform="translate(-211.374 -448.226)" fill="#fff"/>
      <path id="Path_6" data-name="Path 6" d="M251.508,612.11c0-4.234,33.273-7.669,74.323-7.669s74.328,3.434,74.328,7.669-33.274,7.673-74.328,7.673-74.323-3.434-74.323-7.673" transform="translate(-212.995 -443.446)" fill="#9d3d1e"/>
      <path id="Path_7" data-name="Path 7" d="M325.35,590.192a11.394,11.394,0,0,1-11.442,11.3h-31.8a11.391,11.391,0,0,1-11.442-11.3v-31.4a11.392,11.392,0,0,1,11.442-11.3h31.8a11.394,11.394,0,0,1,11.442,11.3Zm-11.442-49.458h-31.8a18.221,18.221,0,0,0-18.276,18.054v31.4a18.218,18.218,0,0,0,18.276,18.049h31.8a18.22,18.22,0,0,0,18.276-18.049v-31.4a18.224,18.224,0,0,0-18.276-18.054" transform="translate(-211.757 -449.841)" fill="#1c2323"/>
      <path id="Path_8" data-name="Path 8" d="M351.274,605.765c0,8.455-6.594,15.315-14.73,15.315s-62.442,1.1-62.442-7.358,54.309-23.276,62.442-23.276,14.73,6.857,14.73,15.32" transform="translate(-210.727 -444.851)" fill="#dc521e"/>
      <path id="Path_9" data-name="Path 9" d="M277.289,613.837c.915.756,5.214,3.06,24.247,4.156,12.581.726,26.091.627,32.581.584,1.139-.012,2.05-.016,2.683-.016,6.576,0,11.928-5.632,11.928-12.548s-5.352-12.547-11.928-12.547c-3.116,0-16.871,3.017-32.182,7.935-19.412,6.232-26.2,10.681-27.329,12.435Zm50.433,10.3c-33.054,0-49.965-2.038-54.538-6.521a5.022,5.022,0,0,1-1.629-3.64c0-2.283,0-7.621,30.1-17.443,14.047-4.582,30.476-8.6,35.148-8.6,9.667,0,17.532,8.111,17.532,18.087S346.467,624.1,336.8,624.1c-.62,0-1.517.009-2.64.016q-3.314.02-6.438.022" transform="translate(-210.982 -445.104)" fill="#1c2323"/>
      <path id="Path_10" data-name="Path 10" d="M329.031,590.972s8.124,22.468-24.484,21.469l13.935,8.636s28.472,4.663,29.663-12.808c0,0,5.107-18.208-19.115-17.3" transform="translate(-207.67 -444.801)" fill="#b52922"/>
      <path id="Path_11" data-name="Path 11" d="M243.641,517.6a6.807,6.807,0,1,0,6.808-6.722,6.765,6.765,0,0,0-6.808,6.722" transform="translate(-213.784 -452.838)" fill="#e7bf7a"/>
      <path id="Path_12" data-name="Path 12" d="M250.7,513.9a3.955,3.955,0,1,0,4,3.954,3.982,3.982,0,0,0-4-3.954Zm0,13.444a9.491,9.491,0,1,1,9.607-9.491,9.563,9.563,0,0,1-9.607,9.491" transform="translate(-214.04 -453.091)" fill="#1c2323"/>
      <path id="Path_13" data-name="Path 13" d="M334.02,517.6a6.807,6.807,0,1,0,6.808-6.722,6.765,6.765,0,0,0-6.808,6.722" transform="translate(-204.712 -452.838)" fill="#e7bf7a"/>
      <path id="Path_14" data-name="Path 14" d="M341.084,513.9a3.955,3.955,0,1,0,4,3.954,3.986,3.986,0,0,0-4-3.954Zm0,13.444a9.491,9.491,0,1,1,9.607-9.491,9.563,9.563,0,0,1-9.607,9.491" transform="translate(-204.968 -453.091)" fill="#1c2323"/>
      <path id="Path_15" data-name="Path 15" d="M286.574,553.014l17.653,13.2,11.24-18.883Zm0,0" transform="translate(-209.475 -449.178)" fill="#c97953"/>
      <path id="Path_16" data-name="Path 16" d="M249.152,503.481c0,25.911,22.537,60.7,50.33,60.7s50.329-34.791,50.329-60.7-22.533-45.188-50.329-45.188-50.33,19.274-50.33,45.188" transform="translate(-213.231 -458.116)" fill="#e7bf7a"/>
      <path id="Path_17" data-name="Path 17" d="M320.6,468.969s14.842,83.551-35.282,89.643c0,0,24.9,7.71,43.122-16.381,0,0,36.656-47.054-7.84-73.261" transform="translate(-209.601 -457.045)" fill="#c97953"/>
      <path id="Path_18" data-name="Path 18" d="M298.786,462.23c-40.684,5.524-42.657,40.7-42.657,40.7,14.429-34.791,42.657-16.764,42.657-16.764s28.223-18.026,42.652,16.764c0,0-1.973-35.178-42.652-40.7" transform="translate(-212.531 -457.721)" fill="#c97953"/>
      <path id="Path_19" data-name="Path 19" d="M274.984,517.783s14.4-10.57,13.506-19.322c0,0,.374,15.646-.3,18.487l-13.209.834" transform="translate(-210.638 -454.084)" fill="#c97953"/>
      <path id="Path_20" data-name="Path 20" d="M306.8,517.1s12.808-2.23,13.213-11.5c0,0,.67,7.823,0,10.659L306.8,517.1" transform="translate(-207.444 -453.368)" fill="#c97953"/>
      <path id="Path_21" data-name="Path 21" d="M280.04,519.631c-9.418,0-13.716-3.727-13.953-3.937a2.749,2.749,0,0,1-.189-3.912,2.83,2.83,0,0,1,3.928-.215c.18.142,6.092,4.754,20.091,1.164a2.807,2.807,0,0,1,3.418,1.982,2.77,2.77,0,0,1-2.008,3.379,45.617,45.617,0,0,1-11.287,1.538" transform="translate(-211.623 -452.838)" fill="#1c2323"/>
      <path id="Path_22" data-name="Path 22" d="M310.061,519.631a45.645,45.645,0,0,1-11.288-1.538,2.772,2.772,0,0,1-2.007-3.379,2.8,2.8,0,0,1,3.417-1.982c14.215,3.646,20-1.087,20.057-1.139a2.834,2.834,0,0,1,3.962.189,2.745,2.745,0,0,1-.193,3.912c-.232.21-4.531,3.937-13.948,3.937" transform="translate(-208.461 -452.838)" fill="#1c2323"/>
      <path id="Path_23" data-name="Path 23" d="M272.346,471.66s-27.079,41.066,10.243,81.764c0,0-35.419-19.038-25.717-65.473,0,0,4.225-13.067,15.474-16.291" transform="translate(-212.625 -456.775)" fill="#fff"/>
      <path id="Path_24" data-name="Path 24" d="M299.482,558.221c-10.446,0-21.428-6.537-30.127-17.941-8.244-10.807-13.364-24.6-13.364-36A36.053,36.053,0,0,1,268.456,477c8.133-7.2,19.15-11.155,31.026-11.155s22.9,3.959,31.025,11.155a36.05,36.05,0,0,1,12.465,27.282c0,11.4-5.119,25.2-13.363,36-8.7,11.4-19.682,17.941-30.127,17.941Zm0-99.928c-27.793,0-50.33,19.274-50.33,45.188s22.537,60.7,50.33,60.7,50.329-34.791,50.329-60.7-22.533-45.188-50.329-45.188" transform="translate(-213.231 -458.116)" fill="#1c2323"/>
      <path id="Path_25" data-name="Path 25" d="M302.428,525.639l1.191,6.814c.228,1.3-1.035,2.553-3.207,3.167l-2.647.748a9.549,9.549,0,0,1-4.827.086l-8.171-2.032c-1.114-.28-2.153.451-1.353.945l8.115,5.067a8.228,8.228,0,0,0,7.8-.081l10.858-7.333c.262-.172.318-.413.15-.618l-5.716-7.058c-.519-.637-2.312-.392-2.192.3" transform="translate(-209.82 -451.423)" fill="#c97953"/>
      <path id="Path_26" data-name="Path 26" d="M282.081,604.922a1.4,1.4,0,0,1-.881-.31,1.368,1.368,0,0,1-.21-1.942c25.309-31.03,44.586-48.3,44.78-48.473a1.407,1.407,0,0,1,1.977.1,1.373,1.373,0,0,1-.1,1.955c-.193.173-19.321,17.31-44.475,48.155a1.4,1.4,0,0,1-1.092.516" transform="translate(-210.066 -448.525)" fill="#1c2323"/>
      <path id="Path_27" data-name="Path 27" d="M303.759,569.18a2.838,2.838,0,0,1-1.767-.619l-22.648-18.186a2.747,2.747,0,0,1-.4-3.894,2.827,2.827,0,0,1,3.942-.4l22.648,18.186a2.743,2.743,0,0,1,.4,3.894,2.8,2.8,0,0,1-2.174,1.023" transform="translate(-210.304 -449.367)" fill="#1c2323"/>
      <path id="Path_28" data-name="Path 28" d="M295.261,578.471a1.413,1.413,0,0,1-.881-.309l-28.734-22.95a1.374,1.374,0,0,1-.211-1.947,1.417,1.417,0,0,1,1.973-.207l28.734,22.95a1.374,1.374,0,0,1,.211,1.947,1.408,1.408,0,0,1-1.092.516" transform="translate(-211.628 -448.634)" fill="#1c2323"/>
      <path id="Path_29" data-name="Path 29" d="M322.488,572.934h11.421c13.5,15.087,32.809,4.9,32.809,4.9,0,11.911-11.928,13.368-11.928,13.368H325.217s-6.89-.618-17.112-6.168c.185-5.3,2.691-12.1,14.383-12.1" transform="translate(-207.313 -446.608)" fill="#e7bf7a"/>
      <path id="Path_30" data-name="Path 30" d="M325.633,588.683h29.216c1.177-.18,6.49-1.269,8.528-6.233-7,2.17-20.108,4.143-30.437-6.5H322.749c-6.873,0-10.625,2.536-11.43,7.746,8.055,4.106,13.505,4.884,14.314,4.983Zm29.59,5.536-30-.013c-.306-.025-7.6-.74-18.208-6.5l-1.509-.816.056-1.7c.326-9.387,6.589-14.774,17.185-14.774h12.684l.839.938c11.833,13.226,28.678,4.655,29.392,4.285l4.113-2.149,0,4.6c0,11.36-9.409,15.509-14.386,16.114l-.172.022" transform="translate(-207.574 -446.861)" fill="#1c2323"/>
      <path id="Path_31" data-name="Path 31" d="M277.289,613.837c.915.756,5.214,3.06,24.247,4.156,12.581.726,26.091.627,32.581.584,1.139-.012,2.05-.016,2.683-.016,6.576,0,11.928-5.632,11.928-12.548s-5.352-12.547-11.928-12.547c-3.116,0-16.871,3.017-32.182,7.935-19.412,6.232-26.2,10.681-27.329,12.435Zm50.433,10.3c-33.054,0-49.965-2.038-54.538-6.521a5.022,5.022,0,0,1-1.629-3.64c0-2.283,0-7.621,30.1-17.443,14.047-4.582,30.476-8.6,35.148-8.6,9.667,0,17.532,8.111,17.532,18.087S346.467,624.1,336.8,624.1c-.62,0-1.517.009-2.64.016q-3.314.02-6.438.022" transform="translate(-210.982 -445.104)" fill="#1c2323"/>
      <path id="Path_32" data-name="Path 32" d="M271.422,591.571c4.839,1.895,11.653,4.93,21.16,9.787,3.242,1.655,12.406-1.3,21.26-5.243-20.779-.211-35.509-4.277-39.631-5.554a27.579,27.579,0,0,1-2.789,1.01Zm23.537,15.7a10.908,10.908,0,0,1-4.952-.992C266.719,594.381,260.745,594.008,260.5,594a.687.687,0,0,0,.146,0l-.611-5.493c3.693-.624,10.368-2.072,12.56-3.323l1.114-.632,1.212.417c.254.09,21.479,7.247,51.219,5.27l12.32-.821-10.755,6c-4,2.23-21.913,11.859-32.745,11.859" transform="translate(-212.139 -445.443)" fill="#1c2323"/>
      <line id="Line_1" data-name="Line 1" x1="1.745" y2="9.294" transform="translate(98.802 138.48)" fill="#e7bf7a"/>
      <path id="Path_33" data-name="Path 33" d="M309.3,593.827l-5.511-1.01,1.745-9.294,5.511,1.01-1.745,9.294" transform="translate(-207.746 -445.546)" fill="#1c2323"/>
      <path id="Path_34" data-name="Path 34" d="M245.057,601.341c-2.025,7.879,3.03,15.947,11.291,18.019s62.615,4.819,64.132,1.152c1.646-3.967-47.231-27.221-55.5-29.293s-17.9,2.244-19.927,10.122" transform="translate(-213.687 -444.825)" fill="#e7bf7a"/>
      <path id="Path_35" data-name="Path 35" d="M248.028,602.278c-1.642,6.388,2.515,12.96,9.267,14.654,8.013,2.011,46.818,3.721,58.613,2.449-9.538-6.83-44.351-23.464-51.357-25.223-7.1-1.779-14.971,2.09-16.523,8.12Zm55.763,23.074c-3.529,0-7.716-.077-12.684-.241-13.57-.447-30.441-1.62-35.2-2.81-9.744-2.446-15.719-12.04-13.316-21.385,2.312-9,13.218-14.666,23.336-12.126,7,1.754,53.635,23.035,57.215,30.05a3.5,3.5,0,0,1,.185,2.979c-.662,1.6-1.461,3.533-19.541,3.533" transform="translate(-213.943 -445.078)" fill="#1c2323"/>
      <path id="Path_36" data-name="Path 36" d="M251.316,602.588a5.227,5.227,0,1,0,5.227-5.162,5.192,5.192,0,0,0-5.227,5.162" transform="translate(-213.014 -444.15)" fill="#fff"/>
      <path id="Path_37" data-name="Path 37" d="M273.91,587.3s21.56,7.462,52.332,5.416c0,0-26.881,14.984-35.036,10.819-25.192-12.866-30.784-12.586-30.784-12.586s10.037-1.685,13.488-3.649" transform="translate(-212.1 -445.166)" fill="#dc521e"/>
      <path id="Path_38" data-name="Path 38" d="M271.422,591.571c4.839,1.895,11.653,4.93,21.16,9.787,3.242,1.655,12.406-1.3,21.26-5.243-20.779-.211-35.509-4.277-39.631-5.554a27.579,27.579,0,0,1-2.789,1.01Zm23.537,15.7a10.908,10.908,0,0,1-4.952-.992C266.719,594.381,260.745,594.008,260.5,594a.687.687,0,0,0,.146,0l-.611-5.493c3.693-.624,10.368-2.072,12.56-3.323l1.114-.632,1.212.417c.254.09,21.479,7.247,51.219,5.27l12.32-.821-10.755,6c-4,2.23-21.913,11.859-32.745,11.859" transform="translate(-212.139 -445.443)" fill="#1c2323"/>
      <path id="Path_39" data-name="Path 39" d="M270.452,572.934H259.036c-13.5,15.087-32.809,4.9-32.809,4.9,0,11.911,11.927,13.368,11.927,13.368h29.569s6.894-.618,17.115-6.168c-.185-5.3-2.695-12.1-14.386-12.1" transform="translate(-215.532 -446.608)" fill="#e7bf7a"/>
      <path id="Path_40" data-name="Path 40" d="M238.612,588.683H267.82c.8-.1,6.327-.915,14.318-4.983-.8-5.209-4.557-7.746-11.43-7.746H260.516c-10.325,10.634-23.439,8.661-30.432,6.5,2.034,4.952,7.324,6.043,8.528,6.233Zm29.5,5.536-30.042-.022c-4.978-.605-14.386-4.754-14.386-16.114v-4.62l4.122,2.179c.709.365,17.554,8.941,29.384-4.289l.839-.937h12.684c10.6,0,16.862,5.386,17.185,14.774l.061,1.7-1.513.816c-10.609,5.759-17.9,6.474-18.2,6.5l-.129.013" transform="translate(-215.788 -446.861)" fill="#1c2323"/>
      <path id="Path_41" data-name="Path 41" d="M269.413,577.011c0-3.069-6.756-5.558-15.087-5.558s-15.087,2.489-15.087,5.558,6.757,5.558,15.087,5.558,15.087-2.489,15.087-5.558" transform="translate(-214.226 -446.757)" fill="#c97953"/>
      <path id="Path_42" data-name="Path 42" d="M240,590.948s36.407-2.609,39.416-15.362c0,0,4.415,4.879,4.1,9.194,0,0-13.948,9.74-43.517,6.169" transform="translate(-214.15 -446.342)" fill="#c97953"/>
      <path id="Path_43" data-name="Path 43" d="M238.612,588.683H267.82c.8-.1,6.327-.915,14.318-4.983-.8-5.209-4.557-7.746-11.43-7.746H260.516c-10.325,10.634-23.439,8.661-30.432,6.5,2.034,4.952,7.324,6.043,8.528,6.233Zm29.5,5.536-30.042-.022c-4.978-.605-14.386-4.754-14.386-16.114v-4.62l4.122,2.179c.709.365,17.554,8.941,29.384-4.289l.839-.937h12.684c10.6,0,16.862,5.386,17.185,14.774l.061,1.7-1.513.816c-10.609,5.759-17.9,6.474-18.2,6.5l-.129.013" transform="translate(-215.788 -446.861)" fill="#1c2323"/>
      <path id="Path_44" data-name="Path 44" d="M284,598.562s21.355,11,11.322,15.6c-11.82,5.429-17.284,3.628-46.672.361,0,0,32.454,14.07,69.549,4.011,0,0-21.2-17.572-34.2-19.971" transform="translate(-213.282 -444.036)" fill="#c97953"/>
      <path id="Path_45" data-name="Path 45" d="M248.028,602.278c-1.642,6.388,2.515,12.96,9.267,14.654,8.013,2.011,46.818,3.721,58.613,2.449-9.538-6.83-44.351-23.464-51.357-25.223-7.1-1.779-14.971,2.09-16.523,8.12Zm55.763,23.074c-3.529,0-7.716-.077-12.684-.241-13.57-.447-30.441-1.62-35.2-2.81-9.744-2.446-15.719-12.04-13.316-21.385,2.312-9,13.218-14.666,23.336-12.126,7,1.754,53.635,23.035,57.215,30.05a3.5,3.5,0,0,1,.185,2.979c-.662,1.6-1.461,3.533-19.541,3.533" transform="translate(-213.943 -445.078)" fill="#1c2323"/>
      <path id="Path_46" data-name="Path 46" d="M348.363,490.091a1.4,1.4,0,0,1-1.38-1.136,34.955,34.955,0,0,0-18.664-25.381,1.374,1.374,0,0,1-.744-1.809,1.4,1.4,0,0,1,1.831-.739c.676.279,16.553,7.074,20.336,27.431a1.385,1.385,0,0,1-1.126,1.612,1.276,1.276,0,0,1-.254.022" transform="translate(-205.37 -457.853)" fill="#fff"/>
      <path id="Path_47" data-name="Path 47" d="M347.508,472.021a1.4,1.4,0,0,1-1.281-.821c-2.85-6.289-9.164-10.488-9.225-10.531a1.37,1.37,0,0,1-.391-1.918,1.408,1.408,0,0,1,1.942-.386c.284.185,7.041,4.668,10.23,11.7a1.375,1.375,0,0,1-.7,1.828,1.434,1.434,0,0,1-.572.124" transform="translate(-204.475 -458.133)" fill="#fff"/>
      <path id="Path_48" data-name="Path 48" d="M350.88,582.584s-7.2,4.406-30.239,6.426c0,0,34.807,5.385,42.274-3.693l.873-5.407-12.909,2.674" transform="translate(-206.055 -445.908)" fill="#c97953"/>
      <path id="Path_49" data-name="Path 49" d="M325.633,588.683h29.216c1.177-.18,6.49-1.269,8.528-6.233-7,2.17-20.108,4.143-30.437-6.5H322.749c-6.873,0-10.625,2.536-11.43,7.746,8.055,4.106,13.505,4.884,14.314,4.983Zm29.59,5.536-30-.013c-.306-.025-7.6-.74-18.208-6.5l-1.509-.816.056-1.7c.326-9.387,6.589-14.774,17.185-14.774h12.684l.839.938c11.833,13.226,28.678,4.655,29.392,4.285l4.113-2.149,0,4.6c0,11.36-9.409,15.509-14.386,16.114l-.172.022" transform="translate(-207.574 -446.861)" fill="#1c2323"/>
      <path id="Path_50" data-name="Path 50" d="M310.425,561.594s-6.056,17.137-28.98,25.395l28.98-25.395" transform="translate(-209.989 -447.747)" fill="#fff"/>
      <path id="Path_51" data-name="Path 51" d="M268.084,595.922a2.8,2.8,0,0,1-2.7-2.038,2.765,2.765,0,0,1,1.964-3.4c31.512-8.5,49.367-44.24,49.544-44.6a2.815,2.815,0,0,1,3.743-1.285,2.75,2.75,0,0,1,1.3,3.7c-.77,1.564-19.166,38.367-53.111,47.527a2.758,2.758,0,0,1-.739.1" transform="translate(-211.612 -449.481)" fill="#1c2323"/>
      <path id="Path_52" data-name="Path 52" d="M351.559,601.056h-.095a1.385,1.385,0,1,1,.09-2.769c.589.018,14.133.223,17.584-17.1a1.4,1.4,0,0,1,2.751.533c-3.761,18.884-18.934,19.339-20.331,19.339" transform="translate(-203.097 -445.893)" fill="#fff"/>
      <path id="Path_53" data-name="Path 53" d="M369.237,544.528s10.936-21.707,23.663-26.207c0,0-12.168-3.044-22.768,4.569,0,0-5.4,17.671-.895,21.638" transform="translate(-201.357 -452.151)" fill="#6cb42f"/>
      <path id="Path_54" data-name="Path 54" d="M372.825,524.858a59.182,59.182,0,0,0-2.26,12.461c3.035-4.879,7.793-11.6,13.462-16.386a25.217,25.217,0,0,0-11.2,3.925Zm-2.432,24.41-2.743-2.415c-5.407-4.78-1.306-19.966.078-24.505l.271-.894.765-.546c11.533-8.279,24.556-5.15,25.106-5.012l8.92,2.226-8.661,3.061c-9.572,3.387-19.2,19.076-22.1,24.835l-1.633,3.25" transform="translate(-201.609 -452.404)" fill="#1c2323"/>
      <path id="Path_55" data-name="Path 55" d="M368.228,543.777s3.61-40,22.051-53.3c0,0-25.519,8.055-36.884,42.047l14.833,11.257" transform="translate(-202.767 -454.886)" fill="#6cb42f"/>
      <path id="Path_56" data-name="Path 56" d="M357.047,532.246l9.337,7.084c1.169-8.124,4.3-24.648,11.622-37.491-7.135,5.8-15.525,15.333-20.959,30.407Zm13.871,17.5-20.465-15.521.627-1.865c11.675-34.933,37.595-43.474,38.691-43.823l16.475-5.2-13.969,10.075c-17.215,12.418-20.873,50.927-20.907,51.314l-.451,5.02" transform="translate(-203.062 -455.602)" fill="#1c2323"/>
      <path id="Path_57" data-name="Path 57" d="M351.578,535.459s10.708-18.273,4.634-35.943c0,0,12.921,7.513,7.144,39l-11.777-3.056" transform="translate(-202.949 -453.978)" fill="#6cb42f"/>
      <path id="Path_58" data-name="Path 58" d="M356.022,534.2l5.455,1.414c1.522-9.938,1-17.09-.237-22.149a56.154,56.154,0,0,1-5.218,20.734Zm9.938,8.3-18.264-4.74,1.84-3.143c.138-.241,9.973-17.469,4.406-33.665l-2.424-7.058,6.5,3.783c.593.348,14.533,8.871,8.476,41.878l-.537,2.945" transform="translate(-203.339 -454.542)" fill="#1c2323"/>
      <path id="Path_59" data-name="Path 59" d="M330.09,554.315c-3.637,14.8,3.6,29.247,16.161,32.256s25.687-6.555,29.324-21.358-3.6-29.242-16.158-32.251-25.691,6.551-29.327,21.354" transform="translate(-205.201 -450.677)" fill="#9f573f"/>
      <path id="Path_60" data-name="Path 60" d="M330.346,554.571h0Zm24.642-19.14c-9.714,0-19.045,8.107-21.917,19.794a27.2,27.2,0,0,0,1.8,18.668,18.725,18.725,0,0,0,12.3,10.239,18.937,18.937,0,0,0,15.685-3.538,28.487,28.487,0,0,0,8.463-34.447,18.722,18.722,0,0,0-12.3-10.243,17.388,17.388,0,0,0-4.024-.472Zm-3.761,54.718a22.851,22.851,0,0,1-5.381-.636,24.192,24.192,0,0,1-16-13.166,32.665,32.665,0,0,1-2.218-22.428c3.993-16.266,18.672-26.758,32.707-23.4a24.209,24.209,0,0,1,16.007,13.166,33.987,33.987,0,0,1-10.162,41.363,25.343,25.343,0,0,1-14.95,5.1" transform="translate(-205.457 -450.929)" fill="#1c2323"/>
      <path id="Path_61" data-name="Path 61" d="M364.471,535.289s.055,44.119-24.131,49.139c0,0,12.125,3.984,22.128-1.642,12.122-6.817,21.144-25.094,2-47.5" transform="translate(-204.077 -450.387)" fill="#662f23"/>
      <path id="Path_62" data-name="Path 62" d="M346.408,535.145l-8.192,10.767-.571-7.015Zm0,0" transform="translate(-204.348 -450.402)" fill="#fff"/>
      <path id="Path_63" data-name="Path 63" d="M338.015,542.81l-2.82,14.159-5.089.253,6.367-14.984,1.543.572" transform="translate(-205.105 -449.69)" fill="#fff"/>
      <path id="Path_64" data-name="Path 64" d="M331.229,567.7,330.9,556.8h3.081l1.539,12.018-4.286-1.127" transform="translate(-205.026 -448.228)" fill="#fff"/>
      <path id="Path_65" data-name="Path 65" d="M343.789,556.387l1.711,12.74,13.277-2.579,2.047-5.326-13.588,4-3.448-8.837" transform="translate(-203.731 -448.27)" fill="#662f23"/>
      <path id="Path_66" data-name="Path 66" d="M370.361,574.978a1.4,1.4,0,0,1-1.307-.89l-4.539-11.683-16.617,4.9-4.5-11.529-13.144,2.807a1.408,1.408,0,0,1-1.668-1.062,1.385,1.385,0,0,1,1.075-1.646l15.491-3.305,4.427,11.348,16.622-4.9,5.471,14.077a1.386,1.386,0,0,1-.808,1.792,1.483,1.483,0,0,1-.5.09" transform="translate(-205.261 -448.653)" fill="#1c2323"/>
      <path id="Path_67" data-name="Path 67" d="M350.012,547.93l1.706,12.538,10.979-3.306v-4.517l-9,4.049-3.687-8.764" transform="translate(-203.107 -449.119)" fill="#662f23"/>
      <path id="Path_68" data-name="Path 68" d="M354.625,541.727l.451,6.74,8.945-1.32.705-3.773-8.2.9-1.9-2.544" transform="translate(-202.643 -449.741)" fill="#662f23"/>
      <path id="Path_69" data-name="Path 69" d="M374.926,565.979a1.41,1.41,0,0,1-1.2-.671l-6.916-11.39-12.443,5.605-5.021-11.933-10.973,5.038-2.437-13.041a1.4,1.4,0,0,1,2.755-.5l1.784,9.53,10.337-4.75,5.03,11.95,12.082-5.443,8.206,13.51a1.371,1.371,0,0,1-.481,1.9,1.408,1.408,0,0,1-.719.2" transform="translate(-204.522 -450.12)" fill="#1c2323"/>
      <path id="Path_70" data-name="Path 70" d="M374.854,555.094a1.411,1.411,0,0,1-1.015-.429l-8.6-8.92-9.421,1.036-2.455-6.138h-7.7l-1.5-6.564a1.382,1.382,0,0,1,1.057-1.655,1.4,1.4,0,0,1,1.673,1.044l1.009,4.4h7.368l2.368,5.923,8.67-.95,9.556,9.911a1.367,1.367,0,0,1-.047,1.956,1.416,1.416,0,0,1-.967.382" transform="translate(-203.697 -450.678)" fill="#1c2323"/>
      <path id="Path_71" data-name="Path 71" d="M219.055,561.618a22.867,22.867,0,0,0,45.73,0,22.316,22.316,0,0,0-9.047-17.778c-3.977-3.005-8.5-1.707-13.815-1.707-4.724,0-9.5-1.68-13.063.74a22.524,22.524,0,0,0-9.8,18.745" transform="translate(-216.252 -449.757)" fill="#6cb42f"/>
      <path id="Path_72" data-name="Path 72" d="M234.153,544.587a6.039,6.039,0,0,0-3.448.821,19.978,19.978,0,1,0,31.533,16.463,19.487,19.487,0,0,0-7.947-15.581c-2.09-1.578-4.385-1.522-8.253-1.29-1.229.077-2.5.155-3.86.155a42.475,42.475,0,0,1-4.474-.31c-1.278-.133-2.473-.257-3.551-.257Zm8.025,42.635a25.428,25.428,0,0,1-14.649-46.379c3.362-2.283,7.3-1.866,10.768-1.505a37.489,37.489,0,0,0,3.881.275c1.186,0,2.372-.073,3.516-.141,4.006-.245,8.151-.5,12.005,2.42a24.952,24.952,0,0,1,10.149,19.979,25.542,25.542,0,0,1-25.67,25.352" transform="translate(-216.508 -450.01)" fill="#1c2323"/>
      <path id="Path_73" data-name="Path 73" d="M245.313,564.582c-3.146,4.325-3.851,9.13-1.587,10.738s6.654-.589,9.8-4.909,3.851-9.125,1.586-10.738-6.654.589-9.8,4.909" transform="translate(-213.909 -447.993)" fill="#4b772c"/>
      <path id="Path_74" data-name="Path 74" d="M239.433,550.638a2.785,2.785,0,0,1-2.794-2.591c-.039-.59-.8-14.4,10.088-19.236a2.823,2.823,0,0,1,3.709,1.393,2.759,2.759,0,0,1-1.41,3.662c-7.389,3.279-6.8,13.721-6.8,13.823a2.777,2.777,0,0,1-2.618,2.94c-.061,0-.121.009-.18.009" transform="translate(-214.49 -451.062)" fill="#1c2323"/>
      <path id="Path_75" data-name="Path 75" d="M224.759,551.54c-2.772,4.732-3.275,9.568-1.126,10.788s6.134-1.62,8.9-6.357,3.27-9.563,1.121-10.789-6.134,1.621-8.9,6.358" transform="translate(-215.926 -449.423)" fill="#fff"/>
      <path id="Path_76" data-name="Path 76" d="M341.051,568.512l.679,11.992,11.378-2.1-.572-4.857-8.472,2.037-3.013-7.074" transform="translate(-204.006 -447.052)" fill="#662f23"/>
      <path id="Path_77" data-name="Path 77" d="M362.958,581.62a1.41,1.41,0,0,1-1.186-.649l-4.414-6.959-12.947,3.538-3.86-9.053-9.469,1.762a1.4,1.4,0,0,1-1.638-1.1,1.386,1.386,0,0,1,1.118-1.617l11.7-2.18,3.782,8.877,12.582-3.447,5.527,8.713a1.375,1.375,0,0,1-.447,1.908,1.414,1.414,0,0,1-.744.211" transform="translate(-205.174 -447.369)" fill="#1c2323"/>
      <path id="Path_78" data-name="Path 78" d="M330.346,554.571h0Zm24.642-19.14c-9.714,0-19.045,8.107-21.917,19.794a27.2,27.2,0,0,0,1.8,18.668,18.725,18.725,0,0,0,12.3,10.239,18.937,18.937,0,0,0,15.685-3.538,28.487,28.487,0,0,0,8.463-34.447,18.722,18.722,0,0,0-12.3-10.243,17.388,17.388,0,0,0-4.024-.472Zm-3.761,54.718a22.851,22.851,0,0,1-5.381-.636,24.192,24.192,0,0,1-16-13.166,32.665,32.665,0,0,1-2.218-22.428c3.993-16.266,18.672-26.758,32.707-23.4a24.209,24.209,0,0,1,16.007,13.166,33.987,33.987,0,0,1-10.162,41.363,25.343,25.343,0,0,1-14.95,5.1" transform="translate(-205.457 -450.929)" fill="#1c2323"/>
      <path id="Path_79" data-name="Path 79" d="M299.715,542.956a2.768,2.768,0,1,0,2.767-2.733,2.753,2.753,0,0,0-2.767,2.733" transform="translate(-208.156 -449.892)" fill="#1c2323"/>
    </g>
  </g>
</svg>
