<svg xmlns="http://www.w3.org/2000/svg" width="61.5" height="146.699" viewBox="0 0 61.5 146.699">
  <path id="Path_2809" data-name="Path 2809" d="M-252.056-234.241-266.5-242.5a19.866,19.866,0,0,0,7.93-15.879,19.911,19.911,0,0,0-19.889-19.889,19.911,19.911,0,0,0-19.888,19.889,19.87,19.87,0,0,0,7.933,15.882l-14.449,8.268a8.633,8.633,0,0,0-4.336,7.667l.109,4.676h0l1.138,48.644a8.678,8.678,0,0,0,5.614,7.983l7.841,2.92c.015,8.565.022,15.647.022,22.129a8.653,8.653,0,0,0,8.648,8.642l14.741-.02a8.631,8.631,0,0,0,8.623-8.615l.042-22.136,7.683-2.861a8.649,8.649,0,0,0,5.77-7.957l1.238-52.872A8.653,8.653,0,0,0-252.056-234.241Zm-39.308-24.136a12.918,12.918,0,0,1,12.9-12.9,12.917,12.917,0,0,1,12.9,12.9,12.916,12.916,0,0,1-12.9,12.9A12.917,12.917,0,0,1-291.364-258.377Zm36.666,31.8c-.008.089-.015.177-.016.266l-1.239,53a1.647,1.647,0,0,1-1.105,1.517l-.083.03-9.989,3.719a3.494,3.494,0,0,0-2.273,3.267l-.048,24.565a1.64,1.64,0,0,1-1.642,1.637l-14.742.019a1.658,1.658,0,0,1-1.656-1.656c0-7.088-.008-14.893-.027-24.563a3.491,3.491,0,0,0-2.273-3.267L-299.9-171.8a1.649,1.649,0,0,1-1.067-1.523c0-.018,0-.037,0-.055l-1.138-48.665-.109-4.663a1.645,1.645,0,0,1,.824-1.454l17.65-10.1a1.619,1.619,0,0,1,.82-.22h0l8.923,0a1.622,1.622,0,0,1,.884.255c.045.029.092.056.139.083l17.454,9.974A1.655,1.655,0,0,1-254.7-226.576Z" transform="translate(309.204 278.266)" fill="#fff"/>
</svg>
