<svg xmlns="http://www.w3.org/2000/svg" width="73.35" height="146.699" viewBox="0 0 73.35 146.699">
  <g id="Group_5816" data-name="Group 5816" transform="translate(-173.002 138.266)">
    <path id="Path_2810" data-name="Path 2810" d="M246.107-37.5l-.985-4.074a3.5,3.5,0,0,0-.141-.439L233.3-90.445a8.6,8.6,0,0,0-3.33-5.358l-8.665-6.459a19.872,19.872,0,0,0,8.255-16.116,19.91,19.91,0,0,0-19.888-19.887,19.91,19.91,0,0,0-19.888,19.887,19.872,19.872,0,0,0,8.257,16.118l-8.661,6.468a8.652,8.652,0,0,0-3.225,4.886l-12.909,53.4a8.577,8.577,0,0,0,5.564,10.179l14.824,5.134L193.68-.778a8.687,8.687,0,0,0,2.266,6.422,8.658,8.658,0,0,0,6.362,2.789l14.741-.021A8.632,8.632,0,0,0,225.673-.2l.042-21.99,14.543-5.036A8.617,8.617,0,0,0,246.107-37.5Zm-49.334-80.876a12.917,12.917,0,0,1,12.9-12.9,12.917,12.917,0,0,1,12.9,12.9,12.917,12.917,0,0,1-12.9,12.9A12.916,12.916,0,0,1,196.773-118.379ZM238.193-33.9c-.052.015-.1.031-.156.049l-16.955,5.871a3.494,3.494,0,0,0-2.349,3.294L218.684-.21a1.639,1.639,0,0,1-1.641,1.637L202.3,1.447a1.631,1.631,0,0,1-1.214-.531,1.667,1.667,0,0,1-.435-1.278c.008-.1.012-.2.012-.3l-.046-24.028a3.493,3.493,0,0,0-2.349-3.294L181.094-33.93a1.645,1.645,0,0,1-1.056-1.929l12.91-53.405a1.638,1.638,0,0,1,.614-.929l10.664-7.964a1.632,1.632,0,0,1,.986-.329h0l8.923,0a1.63,1.63,0,0,1,1.038.367c.036.029.072.056.108.083L225.8-90.2a1.649,1.649,0,0,1,.641,1.051c.014.082.03.164.051.244l12.256,50.842a3.521,3.521,0,0,0,.148.458l.423,1.75A1.636,1.636,0,0,1,238.193-33.9Z" fill="#fff"/>
  </g>
</svg>
